<?xml version="1.0" encoding="UTF-8" standalone="no"?><!DOCTYPE svg PUBLIC "-//W3C//DTD SVG 1.1//EN" "http://www.w3.org/Graphics/SVG/1.1/DTD/svg11.dtd"><svg width="100%" height="100%" viewBox="0 0 834 375" version="1.1" xmlns="http://www.w3.org/2000/svg" xmlns:xlink="http://www.w3.org/1999/xlink" xml:space="preserve" xmlns:serif="http://www.serif.com/" style="fill-rule:evenodd;clip-rule:evenodd;stroke-linejoin:round;stroke-miterlimit:2;"><g><path d="M777.213,56.279c0,-12.302 -9.987,-22.289 -22.289,-22.289l-676.514,0c-12.302,0 -22.29,9.987 -22.29,22.289l0,178.314c0,12.302 9.988,22.29 22.29,22.29l676.514,0c12.302,0 22.289,-9.988 22.289,-22.29l0,-178.314Z" style="fill:#5e72e4;"/><path d="M162.59,131.658c0,-5.073 -4.113,-9.186 -9.186,-9.186l-4.593,0c-10.147,0 -18.371,8.224 -18.371,18.371l0,13.779c0,10.147 8.224,18.371 18.371,18.371l4.593,0c5.073,0 9.186,-4.113 9.186,-9.185l0,-32.15Zm50.521,41.335c10.148,0 18.372,-8.224 18.372,-18.371l0,-13.779c0,-10.147 -8.224,-18.371 -18.372,-18.371l-4.592,0c-5.073,0 -9.186,4.113 -9.186,9.186l0,32.15c0,5.072 4.113,9.185 9.186,9.185l4.592,0Zm-32.15,-101.043c-40.997,0 -72.171,34.111 -73.485,73.486l0,4.593c0,2.538 2.055,4.593 4.593,4.593l4.592,0c2.538,0 4.593,-2.055 4.593,-4.593l0,-4.593c0,-32.922 26.785,-59.707 59.707,-59.707c32.923,0 59.708,26.785 59.708,59.707l-0.035,0c0.023,0.698 0.035,47.571 0.035,47.571c0,6.703 -5.434,12.136 -12.137,12.136l-29.199,0c0,-7.609 -6.169,-13.778 -13.779,-13.778l-9.185,0c-7.61,0 -13.779,6.169 -13.779,13.778c0,7.61 6.169,13.779 13.779,13.779l52.163,0c14.313,0 25.915,-11.603 25.915,-25.915l0,-47.571c-1.314,-39.375 -32.488,-73.486 -73.486,-73.486Z" style="fill:#fff;fill-rule:nonzero;"/><text x="331.163px" y="183.38px" style="font-family:'SegoeUI', 'Segoe UI', sans-serif;font-size:104.167px;fill:#fff;">Join Call</text><path d="M578.774,244.321c0,-13.433 13.778,-22.67 26.265,-17.32c3.447,1.498 6.726,3.356 9.783,5.543l0,-58.569c0,-9.205 8.063,-17.586 17.202,-17.586c9.276,0 17.205,8.106 17.205,17.586l0,39.197c6.693,-6.415 19.534,-7.204 27.848,2.473c8.962,-5.61 20.806,-0.844 24.464,6.457c19.29,-3.533 27.974,8.617 27.974,28.5c0,1.079 -0.079,5.213 -0.079,6.281c0.067,24.338 -12.193,30.183 -15.039,48.571c-0.717,4.56 -4.686,7.955 -9.303,7.957l-67.335,0c-7.426,-0.001 -14.188,-4.393 -17.21,-11.176c-5.103,-11.337 -19.235,-37.454 -30.356,-42.212c-7.141,-3.062 -11.419,-8.393 -11.419,-15.702Z" style="fill:#395a93;fill-rule:nonzero;"/><path d="M707.532,319.692l-75.371,0c-5.168,0 -9.421,4.252 -9.421,9.421l0,18.842c0,5.169 4.253,9.422 9.421,9.422l75.371,0c5.168,0 9.421,-4.253 9.421,-9.422l0,-18.842c0,-5.169 -4.253,-9.421 -9.421,-9.421Zm-9.422,26.693c-4.307,0 -7.851,-3.544 -7.851,-7.851c0,-4.307 3.544,-7.851 7.851,-7.851c4.307,0 7.851,3.544 7.851,7.851c0,4.307 -3.544,7.851 -7.851,7.851Z" style="fill:#172b4d;fill-rule:nonzero;"/><path d="M578.774,244.321c0,-13.433 13.778,-22.67 26.265,-17.32c3.447,1.498 6.726,3.356 9.783,5.543l0,-58.569c0,-9.205 8.063,-17.586 17.202,-17.586c9.276,0 17.205,8.106 17.205,17.586l0,39.197c6.693,-6.415 19.534,-7.204 27.848,2.473c8.962,-5.61 20.806,-0.844 24.464,6.457c19.29,-3.533 27.974,8.617 27.974,28.5c0,1.079 -0.079,5.213 -0.079,6.281c0.067,24.338 -12.193,30.183 -15.039,48.571c-0.717,4.56 -4.686,7.955 -9.303,7.957l-67.335,0c-7.426,-0.001 -14.188,-4.393 -17.21,-11.176c-5.103,-11.337 -19.235,-37.454 -30.356,-42.212c-7.141,-3.062 -11.419,-8.393 -11.419,-15.702Z" style="fill:#395a93;fill-rule:nonzero;"/><path d="M707.532,319.692l-75.371,0c-5.168,0 -9.421,4.252 -9.421,9.421l0,18.842c0,5.169 4.253,9.422 9.421,9.422l75.371,0c5.168,0 9.421,-4.253 9.421,-9.422l0,-18.842c0,-5.169 -4.253,-9.421 -9.421,-9.421Zm-9.422,26.693c-4.307,0 -7.851,-3.544 -7.851,-7.851c0,-4.307 3.544,-7.851 7.851,-7.851c4.307,0 7.851,3.544 7.851,7.851c0,4.307 -3.544,7.851 -7.851,7.851Z" style="fill:#172b4d;fill-rule:nonzero;"/></g></svg>