<?xml version="1.0" encoding="UTF-8" standalone="no"?><!DOCTYPE svg PUBLIC "-//W3C//DTD SVG 1.1//EN" "http://www.w3.org/Graphics/SVG/1.1/DTD/svg11.dtd"><svg width="100%" height="100%" viewBox="0 0 834 959" version="1.1" xmlns="http://www.w3.org/2000/svg" xmlns:xlink="http://www.w3.org/1999/xlink" xml:space="preserve" xmlns:serif="http://www.serif.com/" style="fill-rule:evenodd;clip-rule:evenodd;stroke-linejoin:round;stroke-miterlimit:2;"><path d="M677.15,161.028c0,-43.129 -35.016,-78.145 -78.145,-78.145l-364.676,0c-43.13,0 -78.145,35.016 -78.145,78.145l0,636.277c0,43.129 35.015,78.145 78.145,78.145l364.676,0c43.129,0 78.145,-35.016 78.145,-78.145l0,-636.277Z" style="fill:#bdc6d5;"/><path d="M677.15,772.845l-520.966,0l0,24.272c0,20.775 8.253,40.699 22.943,55.39c14.69,14.69 34.615,22.943 55.39,22.943c98.324,0 265.975,0 364.299,0c20.775,0 40.7,-8.253 55.39,-22.943c14.691,-14.691 22.944,-34.615 22.944,-55.39c0,-14.021 0,-24.272 0,-24.272Z" style="fill:#395a93;"/><path d="M629.324,144.049c0,-4.459 -3.62,-8.079 -8.079,-8.079l-409.157,0c-4.459,0 -8.079,3.62 -8.079,8.079l0,64.636c0,4.459 3.62,8.08 8.079,8.08l409.157,0c4.459,0 8.079,-3.621 8.079,-8.08l0,-64.636Z" style="fill:#395a93;fill-opacity:0.5;"/><text x="233.341px" y="187.281px" style="font-family:'SegoeUI-Bold', 'Segoe UI', sans-serif;font-weight:700;font-size:43.19px;fill:#203e72;">https://jackbo<tspan x="521.457px 545.309px " y="187.281px 187.281px ">x.</tspan>tv</text></svg>