<?xml version="1.0" encoding="UTF-8" standalone="no"?><!DOCTYPE svg PUBLIC "-//W3C//DTD SVG 1.1//EN" "http://www.w3.org/Graphics/SVG/1.1/DTD/svg11.dtd"><svg width="100%" height="100%" viewBox="0 0 834 834" version="1.1" xmlns="http://www.w3.org/2000/svg" xmlns:xlink="http://www.w3.org/1999/xlink" xml:space="preserve" xmlns:serif="http://www.serif.com/" style="fill-rule:evenodd;clip-rule:evenodd;stroke-linejoin:round;stroke-miterlimit:2;"><g><text x="94.24px" y="80.474px" style="font-family:'SegoeUI', 'Segoe UI', sans-serif;font-size:50px;">R<tspan x="123.659px 161.354px " y="80.474px 80.474px ">OO</tspan>M C<tspan x="287.257px 324.953px " y="80.474px 80.474px ">OD</tspan>E</text><path d="M752.154,124.175c0,-13.945 -11.321,-25.266 -25.266,-25.266l-620.443,0c-13.944,0 -25.265,11.321 -25.265,25.266l0,75.795c0,13.945 11.321,25.266 25.265,25.266l620.443,0c13.945,0 25.266,-11.321 25.266,-25.266l0,-75.795Z" style="fill:#395a93;fill-opacity:0.5;"/><path d="M752.154,549.842c0,-13.945 -11.321,-25.266 -25.266,-25.266l-620.443,0c-13.944,0 -25.265,11.321 -25.265,25.266l0,75.795c0,13.945 11.321,25.266 25.265,25.266l620.443,0c13.945,0 25.266,-11.321 25.266,-25.266l0,-75.795Z" style="fill:#395a93;fill-opacity:0.5;"/><text x="114.358px" y="191.227px" style="font-family:'SegoeUI-Bold', 'Segoe UI', sans-serif;font-weight:700;font-size:83.333px;">ABCD</text><text x="94.24px" y="298.552px" style="font-family:'SegoeUI', 'Segoe UI', sans-serif;font-size:50px;">NAME</text><path d="M752.154,342.252c0,-13.945 -11.321,-25.266 -25.266,-25.266l-620.443,0c-13.944,0 -25.265,11.321 -25.265,25.266l0,75.795c0,13.945 11.321,25.266 25.265,25.266l620.443,0c13.945,0 25.266,-11.321 25.266,-25.266l0,-75.795Z" style="fill:#395a93;fill-opacity:0.5;"/><text x="114.358px" y="409.304px" style="font-family:'SegoeUI-Bold', 'Segoe UI', sans-serif;font-weight:700;font-size:83.333px;">Chr<tspan x="249.368px 300.312px " y="409.304px 409.304px ">om</tspan>aticP<tspan x="566.303px 617.247px 652.81px " y="409.304px 409.304px 409.304px ">ort</tspan></text><text x="324.29px" y="618.074px" style="font-family:'SegoeUI-Bold', 'Segoe UI', sans-serif;font-weight:700;font-size:75px;fill:#4f5d74;">PL<tspan x="410.35px 457.444px " y="618.074px 618.074px ">AY</tspan></text><path d="M574.538,679.749c0,-13.433 13.779,-22.67 26.266,-17.319c3.447,1.497 6.726,3.355 9.782,5.542l0,-58.569c0,-9.205 8.063,-17.586 17.202,-17.586c9.276,0 17.206,8.106 17.206,17.586l0,39.197c6.693,-6.415 19.533,-7.204 27.848,2.473c8.962,-5.61 20.805,-0.844 24.464,6.457c19.29,-3.533 27.973,8.617 27.973,28.5c0,1.079 -0.078,5.213 -0.078,6.281c0.066,24.338 -12.193,30.183 -15.039,48.571c-0.718,4.56 -4.687,7.955 -9.304,7.957l-67.335,0c-7.426,-0.001 -14.188,-4.393 -17.209,-11.176c-5.103,-11.337 -19.235,-37.454 -30.357,-42.212c-7.14,-3.062 -11.419,-8.393 -11.419,-15.702Z" style="fill:#395a93;fill-rule:nonzero;"/><path d="M703.296,755.12l-75.37,0c-5.169,0 -9.422,4.253 -9.422,9.421l0,18.843c0,5.168 4.253,9.421 9.422,9.421l75.37,0c5.168,0 9.421,-4.253 9.421,-9.421l0,-18.843c0,-5.168 -4.253,-9.421 -9.421,-9.421Zm-9.421,26.693c-4.307,0 -7.851,-3.544 -7.851,-7.851c0,-4.307 3.544,-7.851 7.851,-7.851c4.307,0 7.851,3.544 7.851,7.851c0,4.307 -3.544,7.851 -7.851,7.851Z" style="fill:#172b4d;fill-rule:nonzero;"/><path d="M574.538,679.749c0,-13.433 13.779,-22.67 26.266,-17.319c3.447,1.497 6.726,3.355 9.782,5.542l0,-58.569c0,-9.205 8.063,-17.586 17.202,-17.586c9.276,0 17.206,8.106 17.206,17.586l0,39.197c6.693,-6.415 19.533,-7.204 27.848,2.473c8.962,-5.61 20.805,-0.844 24.464,6.457c19.29,-3.533 27.973,8.617 27.973,28.5c0,1.079 -0.078,5.213 -0.078,6.281c0.066,24.338 -12.193,30.183 -15.039,48.571c-0.718,4.56 -4.687,7.955 -9.304,7.957l-67.335,0c-7.426,-0.001 -14.188,-4.393 -17.209,-11.176c-5.103,-11.337 -19.235,-37.454 -30.357,-42.212c-7.14,-3.062 -11.419,-8.393 -11.419,-15.702Z" style="fill:#395a93;fill-rule:nonzero;"/><path d="M703.296,755.12l-75.37,0c-5.169,0 -9.422,4.253 -9.422,9.421l0,18.843c0,5.168 4.253,9.421 9.422,9.421l75.37,0c5.168,0 9.421,-4.253 9.421,-9.421l0,-18.843c0,-5.168 -4.253,-9.421 -9.421,-9.421Zm-9.421,26.693c-4.307,0 -7.851,-3.544 -7.851,-7.851c0,-4.307 3.544,-7.851 7.851,-7.851c4.307,0 7.851,3.544 7.851,7.851c0,4.307 -3.544,7.851 -7.851,7.851Z" style="fill:#172b4d;fill-rule:nonzero;"/></g></svg>