<?xml version="1.0" standalone="no"?>
<!DOCTYPE svg PUBLIC "-//W3C//DTD SVG 20010904//EN"
 "http://www.w3.org/TR/2001/REC-SVG-20010904/DTD/svg10.dtd">
<svg version="1.0" xmlns="http://www.w3.org/2000/svg"
 width="700.000000pt" height="700.000000pt" viewBox="0 0 700.000000 700.000000"
 preserveAspectRatio="xMidYMid meet">
<metadata>
Created by potrace 1.11, written by Peter Selinger 2001-2013
</metadata>
<g transform="translate(0.000000,700.000000) scale(0.100000,-0.100000)"
fill="#000000" stroke="none">
<path d="M3390 6572 c-552 -46 -1028 -438 -1184 -974 -36 -124 -47 -202 -50
-347 -2 -93 12 -246 27 -296 4 -11 8 -32 11 -46 2 -15 19 -69 36 -120 64 -186
163 -342 315 -495 143 -144 280 -235 468 -310 50 -20 94 -40 97 -44 3 -5 5
-278 5 -609 l0 -600 384 2 385 2 0 607 0 607 51 16 c99 33 323 149 355 185 3
3 32 27 65 52 215 164 420 500 461 758 3 19 7 37 9 41 6 9 18 150 19 224 1 39
-4 115 -12 170 -66 516 -423 949 -917 1114 -93 31 -104 34 -215 52 -65 10
-243 17 -310 11z m-55 -602 c206 -100 216 -389 17 -505 -57 -34 -71 -38 -135
-39 -119 -1 -212 57 -264 163 -66 133 -16 291 118 374 68 41 186 45 264 7z"/>
<path d="M1770 2729 c-76 -6 -120 -29 -155 -79 -31 -46 -40 -94 -39 -207 l1
-93 -111 0 c-303 0 -356 -5 -429 -38 -83 -38 -150 -104 -192 -187 l-30 -60 0
-675 0 -675 31 -65 c46 -95 141 -181 230 -205 16 -5 36 -10 44 -12 28 -8 4695
-8 4748 0 115 17 226 101 283 215 l34 67 2 650 c3 693 3 686 -46 784 -32 61
-101 125 -178 163 l-68 33 -1720 2 c-946 2 -1745 3 -1776 3 l-55 0 1 98 c2
116 -8 166 -41 209 -49 65 -83 74 -287 76 -100 1 -211 -1 -247 -4z"/>
</g>
</svg>
